HIERARCHY
ROOT hip
{
	OFFSET 0.000000 0.000000 0.000000
	CHANNELS 6 Xposition Yposition Zposition Zrotation Yrotation Xrotation 
	JOINT lhipjoint
	{
		OFFSET 0.000000 0.000000 0.000000
		CHANNELS 3 Zrotation Yrotation Xrotation
		JOINT lfemur
		{
			OFFSET 1.363060 -1.794630 0.839290
			CHANNELS 3 Zrotation Yrotation Xrotation
			JOINT ltibia
			{
				OFFSET 2.448110 -6.726130 0.000000
				CHANNELS 3 Zrotation Yrotation Xrotation
				JOINT lfoot
				{
					OFFSET 2.562200 -7.039590 0.000000
					CHANNELS 3 Zrotation Yrotation Xrotation
					JOINT ltoes
					{
						OFFSET 0.157640 -0.433110 2.322550
						CHANNELS 3 Zrotation Yrotation Xrotation
						End Site
						{
							OFFSET 0.000000 0.000000 0.000000
						}
					}
				}
			}
		}
	}
	JOINT rhipjoint
	{
		OFFSET 0.000000 0.000000 0.000000
		CHANNELS 3 Zrotation Yrotation Xrotation
		JOINT rfemur
		{
			OFFSET -1.305520 -1.794630 0.839290
			CHANNELS 3 Zrotation Yrotation Xrotation
			JOINT rtibia
			{
				OFFSET -2.542530 -6.985550 0.000000
				CHANNELS 3 Zrotation Yrotation Xrotation
				JOINT rfoot
				{
					OFFSET -2.568260 -7.056230 0.000000
					CHANNELS 3 Zrotation Yrotation Xrotation
					JOINT rtoes
					{
						OFFSET -0.164730 -0.452590 2.363150
						CHANNELS 3 Zrotation Yrotation Xrotation
						End Site
						{
							OFFSET 0.000000 0.000000 0.000000
						}
					}
				}
			}
		}
	}
	JOINT lowerback
	{
		OFFSET 0.000000 0.000000 0.000000
		CHANNELS 3 Zrotation Yrotation Xrotation
		JOINT upperback
		{
			OFFSET 0.028270 2.035590 -0.193380
			CHANNELS 3 Zrotation Yrotation Xrotation
			JOINT thorax
			{
				OFFSET 0.056720 2.048850 -0.042750
				CHANNELS 3 Zrotation Yrotation Xrotation
				JOINT lowerneck
				{
					OFFSET 0.000000 0.000000 0.000000
					CHANNELS 3 Zrotation Yrotation Xrotation
					JOINT upperneck
					{
						OFFSET -0.054170 1.746240 0.172020
						CHANNELS 3 Zrotation Yrotation Xrotation
						JOINT head
						{
							OFFSET 0.104070 1.761360 -0.123970
							CHANNELS 3 Zrotation Yrotation Xrotation
							End Site
							{
								OFFSET 0.000000 0.000000 0.000000
							}
						}
					}
				}
				JOINT lclavicle
				{
					OFFSET 0.000000 0.000000 0.000000
					CHANNELS 3 Zrotation Yrotation Xrotation
					JOINT lhumerus
					{
						OFFSET 3.362410 1.200890 -0.311210
						CHANNELS 3 Zrotation Yrotation Xrotation
						JOINT lradius
						{
							OFFSET 4.983000 -0.000000 -0.000000
							CHANNELS 3 Zrotation Yrotation Xrotation
							JOINT lwrist
							{
								OFFSET 3.483560 -0.000000 -0.000000
								CHANNELS 3 Zrotation Yrotation Xrotation
								JOINT lhand
								{
									OFFSET 0.000000 0.000000 0.000000
									CHANNELS 3 Zrotation Yrotation Xrotation
									JOINT lfingers
									{
										OFFSET 0.715260 -0.000000 -0.000000
										CHANNELS 3 Zrotation Yrotation Xrotation
										End Site
										{
											OFFSET 0.000000 0.000000 0.000000
										}
									}
								}
								JOINT lthumb
								{
									OFFSET 0.000000 0.000000 0.000000
									CHANNELS 3 Zrotation Yrotation Xrotation
									End Site
									{
										OFFSET 0.000000 0.000000 0.000000
									}
								}
							}
						}
					}
				}
				JOINT rclavicle
				{
					OFFSET 0.000000 0.000000 0.000000
					CHANNELS 3 Zrotation Yrotation Xrotation
					JOINT rhumerus
					{
						OFFSET -3.136600 1.374050 -0.404650
						CHANNELS 3 Zrotation Yrotation Xrotation
						JOINT rradius
						{
							OFFSET -5.241900 -0.000000 -0.000000
							CHANNELS 3 Zrotation Yrotation Xrotation
							JOINT rwrist
							{
								OFFSET -3.444170 -0.000000 -0.000000
								CHANNELS 3 Zrotation Yrotation Xrotation
								JOINT rhand
								{
									OFFSET 0.000000 0.000000 0.000000
									CHANNELS 3 Zrotation Yrotation Xrotation
									JOINT rfingers
									{
										OFFSET -0.622530 -0.000000 -0.000000
										CHANNELS 3 Zrotation Yrotation Xrotation
										End Site
										{
											OFFSET 0.000000 0.000000 0.000000
										}
									}
								}
								JOINT rthumb
								{
									OFFSET 0.000000 0.000000 0.000000
									CHANNELS 3 Zrotation Yrotation Xrotation
									End Site
									{
										OFFSET 0.000000 0.000000 0.000000
									}
								}
							}
						}
					}
				}
			}
		}
	}
}
MOTION
Frames: 7
Frame Time: 0.008333
-1.686978 15.106177 4.208837 179.493014 -4.327345 163.209982 5.978614 0.987521 -1.536596 0.014264 -5.090281 6.417208 4.867331 11.740362 40.700049 5.995478 -19.069895 7.401660 6.545200 -14.936600 -47.132300 -8.316650 -1.236579 -5.030781 0.329539 -0.845078 8.190001 -9.927643 -14.856883 57.087346 -3.850382 12.039269 -2.541434 -2.946300 10.607700 -30.967800 -1.731016 -0.514333 24.024683 0.325514 -1.804226 -2.855143 1.521450 -0.319354 -7.720259 -6.022053 -9.169463 -6.359180 8.344521 -11.778698 1.109198 5.076700 -4.959300 0.127300 -6.061761 -6.845408 2.693377 62.812227 -17.604235 -50.164885 32.027435 -48.459533 -10.423254 -0.615573 -1.088732 -47.543823 46.326520 -0.963120 -0.568300 -7.125000 0.000000 0.000000 16.237100 29.019300 -6.564200 6.445736 8.127737 3.082331 -65.434354 19.252768 -59.345530 -32.147252 53.675048 -11.066764 0.396214 0.339489 -42.692298 -60.753452 19.546083 -30.993000 7.125000 0.000000 0.000000 -19.602900 4.187900 -22.287600 
-1.702203 14.988358 4.203364 179.448802 -4.384745 163.239043 5.951181 0.978842 -1.574613 0.263581 -4.783413 6.102354 5.056141 11.929789 41.316864 6.156071 -19.904061 6.270177 6.345400 -14.754900 -46.352700 -8.220502 -1.207216 -5.005676 -0.427212 -1.607246 7.740875 -10.112680 -15.008004 57.752088 -3.891082 11.859287 -3.818041 -2.987300 10.674500 -31.189800 -1.618244 -0.625548 23.846600 0.327821 -1.916083 -2.848736 1.592561 -0.377989 -7.680590 -6.136183 -9.157580 -6.177585 8.235009 -11.761351 1.075186 5.116700 -4.946500 -0.003900 -5.863028 -6.924076 2.713025 60.604086 -16.477930 -47.367353 31.708975 -47.512396 -10.188832 -0.594575 -1.251210 -47.218372 44.656673 -2.418352 -1.833700 -7.125000 0.000000 0.000000 14.786200 27.329300 -6.551800 6.247866 8.185185 3.077935 -63.555412 18.988433 -58.034046 -33.031981 54.076956 -11.663214 0.423082 0.338051 -42.623508 -61.492774 19.249687 -31.445900 7.125000 0.000000 0.000000 -20.084100 4.338000 -22.957700 
-1.715736 14.921389 4.196597 179.518589 -4.431838 163.267382 5.940308 0.974976 -1.604899 0.493139 -4.588751 5.990644 5.128606 11.986457 41.487730 6.254541 -20.397098 5.529137 6.279300 -14.693600 -46.092500 -8.189728 -1.190674 -5.009645 -0.663559 -2.147364 7.608808 -10.192064 -15.065600 57.996380 -3.834334 11.250010 -4.873787 -3.090400 10.839900 -31.741900 -1.417764 -0.753130 23.523023 0.331627 -2.016816 -2.837262 1.676874 -0.433777 -7.523623 -6.272851 -9.163151 -6.046351 8.131376 -11.770265 1.095472 5.182500 -4.944800 -0.100500 -5.675649 -6.960490 2.756847 58.217571 -15.566004 -44.796502 31.439790 -46.649767 -10.057860 -0.577579 -1.400034 -47.022976 42.863445 -4.234343 -3.319200 -7.125000 0.000000 0.000000 13.210800 25.202600 -6.493000 6.042345 8.190740 3.095070 -61.363619 18.950090 -56.710014 -33.584439 54.208359 -12.060890 0.464782 0.335751 -41.849211 -62.565684 19.383732 -32.849400 7.125000 0.000000 0.000000 -20.626100 5.413800 -24.026100 
-1.726881 14.893327 4.178884 179.690520 -4.456704 163.267504 5.934743 0.972367 -1.635679 0.792799 -4.369372 6.099988 5.091460 11.921001 41.250171 6.315504 -20.729895 5.106291 6.311400 -14.723500 -46.219200 -8.205877 -1.178083 -5.051921 -0.503477 -2.509770 7.836251 -10.159814 -15.029886 57.812060 -3.717251 10.461276 -5.674226 -3.241300 11.075700 -32.535700 -1.158291 -0.901493 23.030417 0.339660 -2.121578 -2.816032 1.785429 -0.495537 -7.211982 -6.364496 -9.139234 -5.967864 7.992245 -11.747577 1.190157 5.225500 -4.933200 -0.192500 -5.491936 -6.950212 2.842023 55.612187 -14.903154 -42.566499 31.120709 -45.809657 -9.987163 -0.570150 -1.535750 -46.892707 41.019212 -6.263679 -4.830200 -7.125000 0.000000 0.000000 11.607600 22.860600 -6.313000 5.849460 8.139683 3.114471 -58.975766 19.022665 -55.202894 -33.983059 54.188858 -12.360731 0.508213 0.327086 -40.883806 -63.910436 19.802542 -35.018900 7.125000 0.000000 0.000000 -21.228000 7.205700 -25.427700 
-1.735638 14.902980 4.152515 179.955156 -4.489969 163.227330 5.935639 0.968210 -1.659397 1.086222 -4.230958 6.433742 4.950499 11.743312 40.653544 6.323357 -20.838719 5.136444 6.341100 -14.750900 -46.335800 -8.263660 -1.167361 -5.133002 0.003464 -2.753811 8.429267 -10.011288 -14.899770 57.195420 -3.527302 9.487249 -6.125512 -3.404600 11.322800 -33.376600 -0.831846 -1.063980 22.459112 0.350142 -2.229769 -2.788122 1.878384 -0.562709 -6.787314 -6.395777 -9.118965 -6.003232 7.846265 -11.729828 1.338648 5.245800 -4.926700 -0.235300 -5.326239 -6.917241 2.954825 52.905494 -14.441209 -40.729661 30.699107 -44.950691 -9.933747 -0.573784 -1.658804 -46.873108 39.261243 -8.266064 -6.159100 -7.125000 0.000000 0.000000 10.114100 20.608900 -5.999600 5.666351 8.066792 3.116299 -56.312704 19.052791 -53.401783 -34.268886 54.022502 -12.594278 0.551405 0.313890 -40.030929 -65.368153 20.552483 -37.882100 7.125000 0.000000 0.000000 -21.796500 9.687700 -27.010300 
-1.740514 14.953829 4.116990 -179.726825 -4.531086 163.151413 5.942589 0.959992 -1.672248 1.295617 -4.213958 7.030369 4.712212 11.449313 39.699255 6.252140 -20.483526 5.627365 6.394900 -14.800400 -46.546700 -8.353763 -1.154518 -5.253598 0.799678 -2.865803 9.406454 -9.735396 -14.663769 56.103842 -3.284952 8.463886 -6.110791 -3.527200 11.503200 -33.996200 -0.460234 -1.230523 21.845639 0.363754 -2.337458 -2.754382 1.952382 -0.633003 -6.288353 -6.407185 -9.096065 -6.088814 7.691391 -11.708632 1.517394 5.258200 -4.920500 -0.263100 -5.199783 -6.863881 3.098414 50.342462 -14.319599 -39.589807 29.927559 -43.945051 -9.732683 -0.595184 -1.755982 -46.678634 37.618093 -9.946644 -7.110400 -7.125000 0.000000 0.000000 8.775400 18.787000 -5.547000 5.498630 7.973403 3.120024 -53.333882 19.124144 -51.505307 -34.442515 53.729125 -12.794135 0.596443 0.292933 -39.193834 -66.667191 21.527799 -40.950600 7.125000 0.000000 0.000000 -22.219700 12.449300 -28.445300 
-1.742703 15.046173 4.073305 -179.383119 -4.589283 163.034925 5.953810 0.947752 -1.673578 1.390166 -4.298244 7.902068 4.385639 11.026666 38.349009 6.103266 -19.609444 6.391926 6.575800 -14.964000 -47.251000 -8.465238 -1.137474 -5.405871 1.839080 -2.857583 10.773230 -9.329074 -14.308391 54.509294 -2.975082 7.324373 -5.604637 -3.538700 11.519800 -34.053700 -0.081887 -1.406361 21.230765 0.380035 -2.459409 -2.723681 2.068524 -0.712017 -5.740939 -6.455213 -9.074616 -6.363092 7.530353 -11.681547 1.753143 5.256800 -4.916600 -0.167500 -5.106890 -6.824020 3.232052 47.676347 -14.230690 -38.449381 29.282749 -43.027340 -9.653345 -0.631930 -1.876006 -46.789677 36.406086 -10.985870 -7.579100 -7.125000 0.000000 0.000000 7.873400 17.741100 -5.148800 5.344526 7.886161 3.096449 -50.228839 19.164374 -49.363182 -34.587826 53.366481 -12.999967 0.635783 0.269991 -38.674615 -67.608009 22.513164 -43.581600 7.125000 0.000000 0.000000 -22.448500 14.901300 -29.457400 
